<svg xmlns="http://www.w3.org/2000/svg" viewBox="0 0 1280 720" width="1280" height="720">
  <defs>
    <marker id="arrowGreen" markerWidth="10" markerHeight="10" refX="9" refY="5" orient="auto"><path d="M0,0 L10,5 L0,10 Z" fill="#2FBF71"/></marker>
    <style>.mono{font-family:Consolas,"Courier New",monospace}.serif{font-family:Georgia,SimSun,serif}.sans{font-family:"Microsoft YaHei",Arial,sans-serif}</style>
  </defs>
  <rect width="1280" height="720" fill="#101820"/>
  <path d="M0 610C220 560 330 655 560 606C805 554 966 602 1280 546" fill="none" stroke="#22364D"/>
  <path d="M64 124H1216" stroke="#33516D" stroke-opacity="0.55"/>
  <text x="64" y="70" class="mono" font-size="13" fill="#2FBF71" letter-spacing="2">02 · WHY NOW</text>
  <text x="64" y="111" class="serif" font-size="34" font-weight="700" fill="#F7F4ED">痛点不是缺数据，而是决策闭环断了</text>
  <g>
    <rect x="72" y="170" width="380" height="402" rx="8" fill="#142235" stroke="#33516D"/>
    <text x="104" y="216" class="mono" font-size="13" fill="#A9B7C7">CURRENT STACK</text>
    <g fill="none" stroke="#76D9A0" stroke-width="2">
      <ellipse cx="122" cy="262" rx="18" ry="8"/><path d="M104 262v22c0 4 8 8 18 8s18-4 18-8v-22"/>
      <path d="M106 342h32v22h-32zM111 353h22M111 359h14"/>
      <circle cx="122" cy="430" r="18"/><path d="M92 462c8-16 20-24 30-24s22 8 30 24"/>
    </g>
    <text x="160" y="278" class="sans" font-size="20" fill="#F7F4ED">数仓和数据湖</text>
    <text x="160" y="358" class="sans" font-size="20" fill="#F7F4ED">BI 看板和报表</text>
    <text x="160" y="438" class="sans" font-size="20" fill="#F7F4ED">分析师和业务团队</text>
    <text x="104" y="516" class="sans" font-size="17" fill="#A9B7C7">
      <tspan x="104" dy="0">系统都在，但问题仍靠会议、截图</tspan>
      <tspan x="104" dy="26">和人工解释流转，行动没有闭环。</tspan>
    </text>
  </g>
  <g>
    <circle cx="646" cy="368" r="168" fill="none" stroke="#33516D" stroke-width="2" stroke-dasharray="9 10"/>
    <path d="M534 248C622 166 784 206 810 330" fill="none" stroke="#2FBF71" stroke-width="4" marker-end="url(#arrowGreen)"/>
    <path d="M785 466C690 560 536 514 493 398" fill="none" stroke="#F2B84B" stroke-width="4" stroke-dasharray="8 9"/>
    <circle cx="646" cy="368" r="78" fill="#17324D" stroke="#2FBF71" stroke-width="2"/>
    <text x="646" y="356" text-anchor="middle" class="serif" font-size="27" font-weight="700" fill="#F7F4ED">行动断点</text>
    <text x="646" y="389" text-anchor="middle" class="mono" font-size="13" fill="#A9B7C7">INSIGHT TO ACTION GAP</text>
    <text x="468" y="214" class="sans" font-size="17" fill="#F7F4ED">发现问题</text>
    <text x="790" y="314" class="sans" font-size="17" fill="#F7F4ED">解释原因</text>
    <text x="738" y="554" class="sans" font-size="17" fill="#F7F4ED">推动动作</text>
    <text x="392" y="472" class="sans" font-size="17" fill="#F2B84B">复盘缺失</text>
  </g>
  <g>
    <rect x="912" y="170" width="296" height="402" rx="8" fill="#142235" stroke="#33516D"/>
    <text x="944" y="216" class="mono" font-size="13" fill="#A9B7C7">INVESTOR READ</text>
    <text x="944" y="278" class="serif" font-size="42" font-weight="700" fill="#2FBF71">3 个断点</text>
    <circle cx="952" cy="324" r="4" fill="#F2B84B"/><text x="970" y="330" class="sans" font-size="18" fill="#F7F4ED">指标争议</text>
    <circle cx="952" cy="376" r="4" fill="#F2B84B"/><text x="970" y="382" class="sans" font-size="18" fill="#F7F4ED">洞察等待</text>
    <circle cx="952" cy="428" r="4" fill="#F2B84B"/><text x="970" y="434" class="sans" font-size="18" fill="#F7F4ED">行动不可追踪</text>
    <rect x="944" y="480" width="208" height="1" fill="#33516D"/>
    <text x="944" y="522" class="sans" font-size="16" fill="#A9B7C7">
      <tspan x="944" dy="0">机会不在替代 BI，</tspan>
      <tspan x="944" dy="24">而在补上决策系统的</tspan>
      <tspan x="944" dy="24">最后一公里。</tspan>
    </text>
  </g>
  <text x="64" y="670" class="sans" font-size="11" fill="#A9B7C7">P02 · 数据栈成熟反而暴露出行动闭环的缺口</text>
</svg>
