<svg xmlns="http://www.w3.org/2000/svg" viewBox="0 0 1280 720" width="1280" height="720">
  <defs><style>.mono{font-family:Consolas,"Courier New",monospace}.serif{font-family:Georgia,SimSun,serif}.sans{font-family:"Microsoft YaHei",Arial,sans-serif}</style></defs>
  <rect width="1280" height="720" fill="#101820"/>
  <path d="M64 124H1216" stroke="#33516D" stroke-opacity="0.55"/>
  <text x="64" y="70" class="mono" font-size="13" fill="#2FBF71" letter-spacing="2">03 · MARKET PULL</text>
  <text x="64" y="111" class="serif" font-size="34" font-weight="700" fill="#F7F4ED">预算正在流向“能证明业务结果”的分析层</text>
  <g>
    <rect x="64" y="160" width="760" height="456" rx="8" fill="#142235" stroke="#33516D"/>
    <text x="96" y="206" class="mono" font-size="12" fill="#A9B7C7">PAIN INTENSITY INDEX · CUSTOMER INTERVIEW SYNTHESIS</text>
    <line x1="350" y1="224" x2="350" y2="548" stroke="#33516D"/>
    <g stroke="#22364D" stroke-dasharray="5 7"><line x1="482" y1="224" x2="482" y2="548"/><line x1="614" y1="224" x2="614" y2="548"/><line x1="746" y1="224" x2="746" y2="548"/></g>
    <text x="336" y="575" text-anchor="middle" class="mono" font-size="12" fill="#A9B7C7">0</text><text x="482" y="575" text-anchor="middle" class="mono" font-size="12" fill="#A9B7C7">35</text><text x="614" y="575" text-anchor="middle" class="mono" font-size="12" fill="#A9B7C7">70</text><text x="746" y="575" text-anchor="middle" class="mono" font-size="12" fill="#A9B7C7">100</text>
    <g class="sans" font-size="17" fill="#F7F4ED">
      <text x="96" y="265">决策延迟影响收入节奏</text><text x="96" y="327">指标口径争议拖慢协作</text><text x="96" y="389">分析请求堆积，人力扩张低效</text><text x="96" y="451">增长动作无法复盘</text><text x="96" y="513">工具总拥有成本继续上升</text>
    </g>
    <rect x="350" y="242" width="356" height="28" rx="4" fill="#2FBF71"/><text x="724" y="263" class="mono" font-size="15" fill="#F7F4ED">90</text>
    <rect x="350" y="304" width="318" height="28" rx="4" fill="#39C77A" opacity="0.9"/><text x="686" y="325" class="mono" font-size="15" fill="#F7F4ED">80</text>
    <rect x="350" y="366" width="286" height="28" rx="4" fill="#76D9A0" opacity="0.82"/><text x="654" y="387" class="mono" font-size="15" fill="#101820">72</text>
    <rect x="350" y="428" width="254" height="28" rx="4" fill="#F2B84B" opacity="0.92"/><text x="622" y="449" class="mono" font-size="15" fill="#101820">64</text>
    <rect x="350" y="490" width="226" height="28" rx="4" fill="#A9B7C7"/><text x="594" y="511" class="mono" font-size="15" fill="#101820">57</text>
  </g>
  <g>
    <rect x="864" y="160" width="352" height="456" rx="8" fill="#142235" stroke="#33516D"/>
    <text x="896" y="206" class="mono" font-size="12" fill="#A9B7C7">WHO PAYS</text>
    <rect x="896" y="238" width="42" height="42" rx="8" fill="#17324D" stroke="#2FBF71"/><path d="M908 270v-20h18v20M914 250v-8h20v28" fill="none" stroke="#2FBF71" stroke-width="2"/>
    <text x="958" y="268" class="serif" font-size="30" font-weight="700" fill="#F7F4ED">企业业务线</text>
    <text x="896" y="326" class="sans" font-size="18" fill="#A9B7C7">
      <tspan x="896" dy="0">付费理由不是“多一个看板”，</tspan>
      <tspan x="896" dy="30">而是减少决策延迟、证明动作</tspan>
      <tspan x="896" dy="30">效果，并降低分析交付成本。</tspan>
    </text>
    <rect x="896" y="438" width="260" height="1" fill="#33516D"/>
    <text x="896" y="490" class="serif" font-size="48" font-weight="700" fill="#F7F4ED">CFO</text>
    <text x="1012" y="490" class="serif" font-size="48" font-weight="700" fill="#2FBF71">RevOps</text>
    <text x="896" y="538" class="sans" font-size="16" fill="#A9B7C7">从成本中心预算转向增长效率预算。</text>
  </g>
  <text x="64" y="670" class="sans" font-size="11" fill="#A9B7C7">P03 · 排名为路演假设，用于表达优先级，可替换为客户调研数据</text>
</svg>
