<svg xmlns="http://www.w3.org/2000/svg" viewBox="0 0 1280 720" width="1280" height="720">
  <defs><marker id="arrow" markerWidth="10" markerHeight="10" refX="9" refY="5" orient="auto"><path d="M0,0 L10,5 L0,10 Z" fill="#2FBF71"/></marker><style>.mono{font-family:Consolas,"Courier New",monospace}.serif{font-family:Georgia,SimSun,serif}.sans{font-family:"Microsoft YaHei",Arial,sans-serif}</style></defs>
  <rect width="1280" height="720" fill="#101820"/>
  <path d="M64 124H1216" stroke="#33516D" stroke-opacity="0.55"/>
  <text x="64" y="70" class="mono" font-size="13" fill="#2FBF71" letter-spacing="2">04 · PRODUCT</text>
  <text x="64" y="111" class="serif" font-size="34" font-weight="700" fill="#F7F4ED">我们把指标、洞察和行动编排成一个工作流</text>
  <rect x="86" y="166" width="1108" height="448" rx="8" fill="#142235" stroke="#33516D"/>
  <g>
    <rect x="130" y="494" width="1020" height="72" rx="7" fill="#17324D" stroke="#33516D"/>
    <circle cx="170" cy="530" r="17" fill="#10251C" stroke="#2FBF71"/><ellipse cx="170" cy="524" rx="12" ry="5" fill="none" stroke="#2FBF71" stroke-width="2"/><path d="M158 524v12c0 3 5 5 12 5s12-2 12-5v-12" fill="none" stroke="#2FBF71" stroke-width="2"/>
    <text x="204" y="522" class="mono" font-size="12" fill="#A9B7C7">LAYER 01</text><text x="204" y="548" class="sans" font-size="20" fill="#F7F4ED">连接器层 · 数仓、CRM、产品行为、财务系统</text>
    <rect x="130" y="388" width="1020" height="72" rx="7" fill="#17324D" stroke="#33516D"/>
    <circle cx="170" cy="424" r="17" fill="#10251C" stroke="#76D9A0"/><path d="M160 416h20M160 424h20M160 432h20" stroke="#76D9A0" stroke-width="2"/>
    <text x="204" y="416" class="mono" font-size="12" fill="#A9B7C7">LAYER 02</text><text x="204" y="442" class="sans" font-size="20" fill="#F7F4ED">语义指标层 · 指标口径、权限治理、行业模板</text>
    <rect x="130" y="282" width="1020" height="72" rx="7" fill="#17324D" stroke="#33516D"/>
    <circle cx="170" cy="318" r="17" fill="#10251C" stroke="#2FBF71"/><path d="M160 318c0-8 6-13 13-13 6 0 11 4 12 10 5 2 8 6 8 12" fill="none" stroke="#2FBF71" stroke-width="2"/>
    <text x="204" y="310" class="mono" font-size="12" fill="#A9B7C7">LAYER 03</text><text x="204" y="336" class="sans" font-size="20" fill="#F7F4ED">洞察代理 · 异常解释、归因分析、建议生成</text>
    <rect x="130" y="204" width="1020" height="52" rx="7" fill="#2FBF71" fill-opacity="0.16" stroke="#2FBF71"/>
    <circle cx="170" cy="230" r="16" fill="#10251C" stroke="#2FBF71"/><path d="M162 230h16m0 0-6-6m6 6-6 6" fill="none" stroke="#2FBF71" stroke-width="2"/>
    <text x="204" y="236" class="sans" font-size="20" fill="#F7F4ED">行动编排层 · 推送到 Slack、CRM、工单和增长实验</text>
    <g stroke="#2FBF71" stroke-width="3" marker-end="url(#arrow)"><line x1="640" y1="494" x2="640" y2="464"/><line x1="640" y1="388" x2="640" y2="358"/><line x1="640" y1="282" x2="640" y2="260"/></g>
  </g>
  <g class="sans" font-size="15" fill="#A9B7C7">
    <rect x="866" y="298" width="250" height="40" rx="5" fill="#101820" stroke="#33516D"/><text x="888" y="323">从问题发现到动作建议</text>
    <rect x="866" y="404" width="250" height="40" rx="5" fill="#101820" stroke="#33516D"/><text x="888" y="429">客户语境沉淀为资产</text>
    <rect x="866" y="510" width="250" height="40" rx="5" fill="#101820" stroke="#33516D"/><text x="888" y="535">企业系统接入即价值入口</text>
  </g>
  <text x="64" y="670" class="sans" font-size="11" fill="#A9B7C7">P04 · 产品价值不是单点功能，而是一条可治理的业务闭环</text>
</svg>
