<svg xmlns="http://www.w3.org/2000/svg" viewBox="0 0 1280 720" width="1280" height="720">
  <defs><style>.mono{font-family:Consolas,"Courier New",monospace}.serif{font-family:Georgia,SimSun,serif}.sans{font-family:"Microsoft YaHei",Arial,sans-serif}</style></defs>
  <rect width="1280" height="720" fill="#101820"/>
  <path d="M64 124H1216" stroke="#33516D" stroke-opacity="0.55"/>
  <text x="64" y="70" class="mono" font-size="13" fill="#2FBF71" letter-spacing="2">05 · TRACTION</text>
  <text x="64" y="111" class="serif" font-size="34" font-weight="700" fill="#F7F4ED">牵引力来自更快上线、更高留存和更多扩展</text>
  <rect x="70" y="164" width="760" height="430" rx="8" fill="#142235" stroke="#33516D"/>
  <g stroke="#22364D" stroke-dasharray="5 7"><line x1="136" y1="445" x2="772" y2="445"/><line x1="136" y1="370" x2="772" y2="370"/><line x1="136" y1="295" x2="772" y2="295"/><line x1="136" y1="220" x2="772" y2="220"/></g>
  <line x1="136" y1="520" x2="772" y2="520" stroke="#33516D" stroke-width="2"/><line x1="136" y1="220" x2="136" y2="520" stroke="#33516D" stroke-width="2"/>
  <text x="98" y="224" class="mono" font-size="11" fill="#A9B7C7">INDEX</text>
  <polyline points="136,488 242,454 348,418 454,362 560,306 666,270 772,226" fill="none" stroke="#2FBF71" stroke-width="4" stroke-linecap="round" stroke-linejoin="round"/>
  <polyline points="136,504 242,486 348,458 454,424 560,388 666,348 772,304" fill="none" stroke="#76D9A0" stroke-width="4" stroke-linecap="round" stroke-linejoin="round"/>
  <g fill="#2FBF71"><circle cx="136" cy="488" r="6"/><circle cx="242" cy="454" r="6"/><circle cx="348" cy="418" r="6"/><circle cx="454" cy="362" r="6"/><circle cx="560" cy="306" r="6"/><circle cx="666" cy="270" r="6"/><circle cx="772" cy="226" r="6"/></g>
  <g fill="#76D9A0"><circle cx="136" cy="504" r="6"/><circle cx="242" cy="486" r="6"/><circle cx="348" cy="458" r="6"/><circle cx="454" cy="424" r="6"/><circle cx="560" cy="388" r="6"/><circle cx="666" cy="348" r="6"/><circle cx="772" cy="304" r="6"/></g>
  <g class="mono" font-size="12" fill="#A9B7C7" text-anchor="middle"><text x="136" y="552">Q1</text><text x="242" y="552">Q2</text><text x="348" y="552">Q3</text><text x="454" y="552">Q4</text><text x="560" y="552">Q5</text><text x="666" y="552">Q6</text><text x="772" y="552">Q7</text></g>
  <rect x="154" y="188" width="12" height="12" rx="2" fill="#2FBF71"/><text x="174" y="199" class="sans" font-size="14" fill="#F7F4ED">ARR 指数</text>
  <rect x="262" y="188" width="12" height="12" rx="2" fill="#76D9A0"/><text x="282" y="199" class="sans" font-size="14" fill="#F7F4ED">付费客户指数</text>
  <g>
    <rect x="872" y="164" width="344" height="430" rx="8" fill="#142235" stroke="#33516D"/>
    <text x="904" y="210" class="mono" font-size="12" fill="#A9B7C7">OPERATING SIGNALS</text>
    <text x="904" y="272" class="serif" font-size="46" font-weight="700" fill="#2FBF71">118%</text><text x="1030" y="272" class="sans" font-size="17" fill="#A9B7C7">目标 NRR</text>
    <rect x="904" y="308" width="254" height="1" fill="#33516D"/>
    <text x="904" y="362" class="serif" font-size="46" font-weight="700" fill="#F7F4ED">21 天</text><text x="1030" y="362" class="sans" font-size="17" fill="#A9B7C7">部署周期</text>
    <rect x="904" y="398" width="254" height="1" fill="#33516D"/>
    <text x="904" y="452" class="serif" font-size="46" font-weight="700" fill="#F2B84B">4.2x</text><text x="1030" y="452" class="sans" font-size="17" fill="#A9B7C7">多团队扩展</text>
    <text x="904" y="526" class="sans" font-size="16" fill="#A9B7C7"><tspan x="904" dy="0">这不是下载量故事，</tspan><tspan x="904" dy="24">而是企业采用曲线开始</tspan><tspan x="904" dy="24">出现复利信号。</tspan></text>
  </g>
  <text x="64" y="670" class="sans" font-size="11" fill="#A9B7C7">P05 · 指标为路演模型占位，可替换为实际经营数据</text>
</svg>
