<svg xmlns="http://www.w3.org/2000/svg" viewBox="0 0 1280 720" width="1280" height="720">
  <defs><style>.mono{font-family:Consolas,"Courier New",monospace}.serif{font-family:Georgia,SimSun,serif}.sans{font-family:"Microsoft YaHei",Arial,sans-serif}</style></defs>
  <rect width="1280" height="720" fill="#101820"/>
  <path d="M64 124H1216" stroke="#33516D" stroke-opacity="0.55"/>
  <text x="64" y="70" class="mono" font-size="13" fill="#2FBF71" letter-spacing="2">07 · GO TO MARKET</text>
  <text x="64" y="111" class="serif" font-size="34" font-weight="700" fill="#F7F4ED">GTM 从高痛点团队切入，再向企业标准化扩展</text>
  <rect x="72" y="166" width="690" height="430" rx="8" fill="#142235" stroke="#33516D"/>
  <text x="152" y="210" class="mono" font-size="12" fill="#A9B7C7">LAND AND EXPAND FUNNEL</text>
  <path d="M166 218H668L626 280H208Z" fill="#2FBF71" opacity="0.9"/><text x="418" y="254" text-anchor="middle" class="sans" font-size="20" font-weight="700" fill="#101820">目标账户 · 1,200</text>
  <path d="M208 312H626L580 374H254Z" fill="#39C77A" opacity="0.82"/><text x="418" y="348" text-anchor="middle" class="sans" font-size="20" font-weight="700" fill="#101820">业务团队试点 · 280</text>
  <path d="M254 406H580L532 468H302Z" fill="#76D9A0" opacity="0.72"/><text x="418" y="442" text-anchor="middle" class="sans" font-size="20" font-weight="700" fill="#101820">付费部署 · 72</text>
  <path d="M302 500H532L494 562H340Z" fill="#F2B84B"/><text x="418" y="536" text-anchor="middle" class="sans" font-size="20" font-weight="700" fill="#101820">企业扩展 · 24</text>
  <path d="M106 190h28l-6 10h-16zM112 206h16l-4 8h-8z" fill="none" stroke="#2FBF71" stroke-width="2"/>
  <rect x="806" y="166" width="410" height="430" rx="8" fill="#142235" stroke="#33516D"/>
  <text x="838" y="214" class="mono" font-size="12" fill="#A9B7C7">EXPANSION MOTION</text>
  <text x="838" y="268" class="serif" font-size="42" font-weight="700" fill="#2FBF71">先赢一个团队，</text>
  <text x="838" y="320" class="serif" font-size="42" font-weight="700" fill="#F7F4ED">再成为指标标准。</text>
  <rect x="838" y="364" width="318" height="1" fill="#33516D"/>
  <g class="sans" font-size="17" fill="#F7F4ED">
    <circle cx="852" cy="412" r="14" fill="#10251C" stroke="#2FBF71"/><path d="M846 412h12m0 0-5-5m5 5-5 5" stroke="#2FBF71" stroke-width="2" fill="none"/><text x="884" y="420">RevOps、增长、财务分析作为切入口</text>
    <circle cx="852" cy="470" r="14" fill="#10251C" stroke="#2FBF71"/><path d="M845 470l5 5 10-12" stroke="#2FBF71" stroke-width="2" fill="none"/><text x="884" y="478">用业务结果证明价值，而非功能清单</text>
    <circle cx="852" cy="528" r="14" fill="#10251C" stroke="#F2B84B"/><path d="M846 534l12-12m-9 0h9v9" stroke="#F2B84B" stroke-width="2" fill="none"/><text x="884" y="536">治理、权限、模板驱动企业级扩展</text>
  </g>
  <text x="64" y="670" class="sans" font-size="11" fill="#A9B7C7">P07 · 漏斗数据为 GTM 模型占位，可替换为 CRM 实际转化率</text>
</svg>
