<svg xmlns="http://www.w3.org/2000/svg" viewBox="0 0 1280 720" width="1280" height="720">
  <defs><style>.mono{font-family:Consolas,"Courier New",monospace}.serif{font-family:Georgia,SimSun,serif}.sans{font-family:"Microsoft YaHei",Arial,sans-serif}</style></defs>
  <rect width="1280" height="720" fill="#101820"/>
  <path d="M64 124H1216" stroke="#33516D" stroke-opacity="0.55"/>
  <text x="64" y="70" class="mono" font-size="13" fill="#2FBF71" letter-spacing="2">08 · BUSINESS MODEL</text>
  <text x="64" y="111" class="serif" font-size="34" font-weight="700" fill="#F7F4ED">商业模型兼具 SaaS 毛利和数据平台扩展性</text>
  <g>
    <rect x="72" y="174" width="340" height="162" rx="8" fill="#142235" stroke="#33516D"/><text x="102" y="218" class="mono" font-size="12" fill="#A9B7C7">TARGET ACV</text><text x="102" y="286" class="serif" font-size="54" font-weight="700" fill="#2FBF71">$48K</text><text x="102" y="316" class="sans" font-size="16" fill="#A9B7C7">平台费 + 席位 + 工作流量</text>
    <rect x="440" y="174" width="340" height="162" rx="8" fill="#142235" stroke="#33516D"/><text x="470" y="218" class="mono" font-size="12" fill="#A9B7C7">GROSS MARGIN</text><text x="470" y="286" class="serif" font-size="54" font-weight="700" fill="#F7F4ED">82%</text><text x="470" y="316" class="sans" font-size="16" fill="#A9B7C7">软件毛利，服务用于导入期</text>
    <rect x="72" y="376" width="340" height="162" rx="8" fill="#142235" stroke="#33516D"/><text x="102" y="420" class="mono" font-size="12" fill="#A9B7C7">PAYBACK</text><text x="102" y="488" class="serif" font-size="54" font-weight="700" fill="#F2B84B">11 月</text><text x="102" y="518" class="sans" font-size="16" fill="#A9B7C7">销售回本周期目标</text>
    <rect x="440" y="376" width="340" height="162" rx="8" fill="#142235" stroke="#33516D"/><text x="470" y="420" class="mono" font-size="12" fill="#A9B7C7">NRR TARGET</text><text x="470" y="488" class="serif" font-size="54" font-weight="700" fill="#2FBF71">118%</text><text x="470" y="518" class="sans" font-size="16" fill="#A9B7C7">多团队扩展与用量增长</text>
  </g>
  <g>
    <rect x="828" y="174" width="388" height="364" rx="8" fill="#142235" stroke="#33516D"/>
    <text x="860" y="220" class="mono" font-size="12" fill="#A9B7C7">PRICING LOGIC</text>
    <g class="sans" font-size="19" fill="#F7F4ED">
      <circle cx="878" cy="276" r="18" fill="#10251C" stroke="#2FBF71"/><text x="914" y="284">平台订阅锁定基础预算</text>
      <circle cx="878" cy="354" r="18" fill="#10251C" stroke="#76D9A0"/><text x="914" y="362">席位扩展覆盖多部门采用</text>
      <circle cx="878" cy="432" r="18" fill="#10251C" stroke="#2FBF71"/><text x="914" y="440">工作流量跟随业务动作增长</text>
    </g>
    <path d="M870 276h16m-8-8v16M868 354c8-10 20-10 28 0M868 432h20m0 0-7-7m7 7-7 7" stroke="#2FBF71" stroke-width="2" fill="none"/>
    <rect x="860" y="486" width="300" height="1" fill="#33516D"/>
    <text x="860" y="524" class="sans" font-size="16" fill="#A9B7C7">模型的核心是让客户使用越深，收入越自然扩展。</text>
  </g>
  <text x="64" y="670" class="sans" font-size="11" fill="#A9B7C7">P08 · 财务指标为目标模型，可替换为实际 cohort 和会计口径</text>
</svg>
