<svg xmlns="http://www.w3.org/2000/svg" viewBox="0 0 1280 720" width="1280" height="720">
  <defs><radialGradient id="closeGlow" cx="74%" cy="38%" r="54%"><stop offset="0" stop-color="#2FBF71" stop-opacity="0.24"/><stop offset="1" stop-color="#2FBF71" stop-opacity="0"/></radialGradient><style>.mono{font-family:Consolas,"Courier New",monospace}.serif{font-family:Georgia,SimSun,serif}.sans{font-family:"Microsoft YaHei",Arial,sans-serif}</style></defs>
  <rect width="1280" height="720" fill="#101820"/>
  <rect width="1280" height="720" fill="url(#closeGlow)"/>
  <path d="M64 616H1216" stroke="#33516D" stroke-opacity="0.55"/>
  <text x="72" y="88" class="mono" font-size="13" fill="#2FBF71" letter-spacing="2">10 · FINANCING ASK</text>
  <text x="72" y="208" class="serif" font-size="66" font-weight="700" fill="#F7F4ED"><tspan x="72" dy="0">本轮融资买的是</tspan><tspan x="72" dy="78">可验证的增长拐点</tspan></text>
  <text x="76" y="344" class="sans" font-size="22" fill="#A9B7C7"><tspan x="76" dy="0">资金用于把已经出现的产品牵引力，转化为可复制的收入增长</tspan><tspan x="76" dy="34">和企业级交付能力。融资金额可按实际计划替换。</tspan></text>
  <g>
    <circle cx="978" cy="282" r="166" fill="#142235" stroke="#33516D"/>
    <path d="M978 282L978 124A158 158 0 0 1 1120 350Z" fill="#2FBF71"/>
    <path d="M978 282L1120 350A158 158 0 0 1 872 408Z" fill="#76D9A0"/>
    <path d="M978 282L872 408A158 158 0 0 1 842 204Z" fill="#F2B84B"/>
    <path d="M978 282L842 204A158 158 0 0 1 978 124Z" fill="#33516D"/>
    <circle cx="978" cy="282" r="86" fill="#101820" stroke="#33516D"/>
    <text x="978" y="274" text-anchor="middle" class="serif" font-size="30" font-weight="700" fill="#F7F4ED">资金用途</text>
    <text x="978" y="306" text-anchor="middle" class="mono" font-size="13" fill="#A9B7C7">18 MONTH RUNWAY</text>
  </g>
  <g class="sans" font-size="16" fill="#F7F4ED">
    <rect x="800" y="490" width="16" height="16" rx="3" fill="#2FBF71"/><text x="828" y="504">45% 产品与 AI 研发</text>
    <rect x="800" y="526" width="16" height="16" rx="3" fill="#76D9A0"/><text x="828" y="540">30% 销售与市场</text>
    <rect x="800" y="562" width="16" height="16" rx="3" fill="#F2B84B"/><text x="828" y="576">15% 客户成功</text>
    <rect x="800" y="598" width="16" height="16" rx="3" fill="#33516D"/><text x="828" y="612">10% 安全合规</text>
  </g>
  <rect x="72" y="456" width="580" height="104" rx="8" fill="#142235" stroke="#33516D"/>
  <circle cx="122" cy="506" r="20" fill="#10251C" stroke="#2FBF71"/><path d="M112 506h20m0 0-7-7m7 7-7 7" stroke="#2FBF71" stroke-width="2" fill="none"/>
  <text x="160" y="498" class="mono" font-size="12" fill="#A9B7C7">MILESTONES</text>
  <text x="160" y="530" class="sans" font-size="19" fill="#F7F4ED">ARR、NRR、企业客户数、安全合规与可复制销售模型</text>
  <text x="72" y="664" class="sans" font-size="13" fill="#A9B7C7">谢谢 · 联系方式和融资条款可在此处替换</text>
</svg>
