<svg width="24" height="24" viewBox="0 0 24 24" fill="none" xmlns="http://www.w3.org/2000/svg">
  <title>Doya Light</title>
  <rect x="1.4" y="1.4" width="21.2" height="21.2" rx="4.8" fill="#F3FFE8"/>
  <g transform="translate(12 12.2) scale(0.72) translate(-12 -12)">
    <path d="M12 16.9V9.2" stroke="#246B3A" stroke-width="2.2" stroke-linecap="round"/>
    <path d="M11.9 9.5C8.8 9.2 7 7.6 6.3 5.1c3.2-.3 5.2 1.1 6.2 3.8" fill="#34B864"/>
    <path d="M12.1 9.5c3.1-.3 4.9-1.9 5.6-4.4-3.2-.3-5.2 1.1-6.2 3.8" fill="#94D83D"/>
    <path d="M8.3 18.1c0-2 1.6-3.5 3.7-3.5s3.7 1.5 3.7 3.5c0 1.2-1.1 1.9-3.7 1.9s-3.7-.7-3.7-1.9Z" fill="#D2A43B"/>
  </g>
</svg>
